<?xml version="1.0" encoding="UTF-8" standalone="no"?>
<svg width="24" height="24" viewBox="0 0 24 24" fill="#44739e" version="1.1" xmlns="http://www.w3.org/2000/svg" xmlns:svg="http://www.w3.org/2000/svg">
<path d="M 13.146484 4.0292969 L 13 4.203125 L 13.441406 5.2734375 C 9.6833177 6.4180697 8.6999091 7.482644 6.3769531 9.671875 C 6.1272417 9.656958 5.8827082 9.6308593 5.6386719 9.5996094 C 4.4181356 9.4446095 3.2542327 9.0872806 2 8.4101562 C 2.6515909 9.7413549 4.3084084 10.51815 5.0703125 10.859375 C 5.1231624 10.883125 5.1829426 10.910844 5.234375 10.933594 C 4.3756368 11.903351 2.8320313 13.779531 2.8320312 16.589844 C 2.8320312 18.214742 3.6383242 19.977086 5.3359375 19.970703 C 9.948152 19.970703 13.454617 14.711661 13.824219 14.267578 C 14.194174 13.823837 14.193359 13.455078 14.193359 13.455078 C 14.193359 13.455078 10.709454 17.908203 7.2734375 17.908203 C 5.8748398 17.933783 5.3614274 16.930572 5.4472656 15.697266 C 5.5593522 14.084425 6.3808861 12.288482 7.3261719 11.171875 C 11.667038 10.279084 9.4261963 10.855924 13.78125 9.40625 C 14.216827 9.976616 15.245249 10.112461 17.126953 9.2519531 C 17.924327 9.4647779 18.71848 9.6035123 19.560547 9.4453125 C 20.153257 9.5818707 20.685585 9.7753906 21.333984 9.7753906 C 21.467352 9.5622159 21.86663 9.0706589 22 8.5996094 L 21.867188 8.3261719 L 21.814453 7.8554688 C 21.584959 7.6284607 21.246487 7.5595457 20.818359 7.4609375 C 19.873782 6.7405382 18.513663 6.134012 17.583984 5.6328125 L 17.228516 5.1855469 C 15.86397 4.9120637 14.50429 4.597888 13.146484 4.0292969 z M 14.328125 5.359375 C 15.186509 5.4799749 15.539665 5.8739325 15.753906 6.0253906 C 16.256877 6.0867236 16.774404 6.062731 17.150391 6.2382812 C 17.231971 6.6713807 17.660754 6.9673408 18.025391 7.1347656 L 19.34375 7.6972656 C 19.003235 8.5393315 17.497332 8.1671166 17.185547 8.046875 C 16.33071 8.2213832 15.164762 8.290088 14.847656 7.7949219 C 12.855285 8.954804 11.007606 9.2338705 7.9082031 9.8769531 C 10.372686 7.6401888 11.758858 6.8920231 14.816406 6.1035156 L 14.328125 5.5332031 L 14.328125 5.359375 z M 15.248047 13.455078 L 15.070312 14.152344 L 16.257812 14.160156 L 15.410156 17.357422 L 16.251953 17.357422 L 17.099609 14.160156 L 17.800781 14.144531 L 18.107422 17.357422 L 19.193359 17.357422 L 21.587891 13.455078 L 20.707031 13.455078 L 18.857422 16.464844 L 18.597656 13.455078 L 15.248047 13.455078 z "/>
</svg>
