<?xml version="1.0" encoding="UTF-8" standalone="no"?>
<svg width="24" height="24" viewBox="0 0 24 24" fill="#44739e" version="1.1" xmlns="http://www.w3.org/2000/svg" xmlns:svg="http://www.w3.org/2000/svg">
<path d="M 10.542969,2.9589844 C 9.029006,2.960341 7.4289241,3.4500963 5.9003906,4.7949219 1.0090828,9.0983743 0.66865587,16.154783 5.1640625,19.365234 9.0990102,22.175424 14.951607,21.031133 18.535156,19 c 0.510427,-0.289292 0.974658,-0.595659 1.38086,-0.912109 3.258067,-2.538228 2.062206,-6.25638 0.667968,-8.2734379 C 19.189761,7.7973861 18.719273,7.3013902 17.572266,6.125 16.783694,5.3162238 13.873683,2.9559997 10.542969,2.9589844 Z m 0.492187,3.046875 c 2.208599,-0.00198 4.137257,1.561357 4.660157,2.0976562 0.760584,0.7800648 1.071583,1.1097476 1.996093,2.4472654 0.924518,1.337511 1.71902,3.803232 -0.441406,5.486328 -0.269353,0.209841 -0.577552,0.413639 -0.916016,0.605469 -2.37625,1.346845 -6.257925,2.103672 -8.8671871,0.240234 C 4.4858929,14.753963 4.7116523,10.076276 7.9550781,7.2226562 8.9686488,6.3309027 10.031248,6.006759 11.035156,6.0058594 Z m 0.425782,2.6464844 C 10.900316,8.652846 10.308204,8.8340416 9.7421875,9.3320313 7.9309321,10.925603 7.8040974,13.53773 9.46875,14.726563 c 1.457115,1.040613 3.62418,0.617363 4.951172,-0.134766 0.189011,-0.107125 0.361303,-0.220708 0.511719,-0.337891 1.206465,-0.939907 0.762381,-2.315581 0.246093,-3.0625 C 14.661453,10.444485 14.487239,10.259838 14.0625,9.8242188 13.770492,9.5247276 12.694303,8.6512385 11.460938,8.6523438 Z"/>
</svg>
