<?xml version="1.0" encoding="UTF-8" standalone="no"?>
<svg width="24" height="24" viewBox="0 0 24 24" fill="#44739e" version="1.1" xmlns="http://www.w3.org/2000/svg" xmlns:svg="http://www.w3.org/2000/svg">
<path d="M 12,2 C 6.4643183,2 2,6.4643183 2,12 2,17.535681 6.4643183,22 12,22 17.535681,22 22,17.535681 22,12 22,6.4643183 17.535681,2 12,2 Z m 0,1 c 4.607115,0 9,4.3928846 9,9 0,4.607115 -4.392885,9 -9,9 C 7.3928846,21 3,16.607115 3,12 3,7.3928846 7.3928846,3 12,3 Z M 7.1347656,6.3164062 c -0.2044321,0 -0.328125,0.1236945 -0.328125,0.328125 V 17.355469 c 0,0.204432 0.1236929,0.328125 0.328125,0.328125 h 9.7304684 c 0.204433,0 0.328125,-0.123693 0.328125,-0.328125 V 7.2988281 L 15.638672,6.3164062 H 14.779297 V 9.8808594 H 10.380859 V 6.3164062 Z m 6.0917964,0.5722657 c -0.122657,0 -0.246093,0.082415 -0.246093,0.2050781 v 1.6347656 c 0,0.1226602 0.123436,0.2460938 0.246093,0.2460938 h 0.408204 c 0.122658,0 0.246093,-0.1234336 0.246093,-0.2460938 V 7.09375 c 0,-0.1226595 -0.123435,-0.2050781 -0.246093,-0.2050781 z M 8.3613281,7.1289062 c 0.4088607,0 0.6953125,0.2864522 0.6953125,0.6953126 0,0.3679734 -0.2864519,0.6542968 -0.6953125,0.6542968 -0.3679733,0 -0.6933594,-0.2863234 -0.6933593,-0.6542968 0,-0.4088604 0.3253861,-0.6953125 0.6933593,-0.6953126 z M 8.1152344,12.53125 H 15.84375 c 0.122659,0 0.203125,0.08228 0.203125,0.164062 v 4.021485 H 7.9121094 v -4.021485 c 0,-0.08177 0.080463,-0.164062 0.203125,-0.164062 z M 8.59375,13.541748 c -0.081769,0 -0.1230469,0.222391 -0.1230469,0.263267 0,0.08177 0.041277,0.328811 0.1230469,0.328811 h 6.746094 c 0.08177,0 0.123047,-0.247042 0.123047,-0.328811 0,-0.04089 -0.04128,-0.263267 -0.123047,-0.263267 z m 0,1.581298 c -0.081769,0 -0.1230469,0.194505 -0.1230469,0.276271 0,0.04089 0.041277,0.303432 0.1230469,0.303432 h 6.746094 c 0.08177,0 0.123047,-0.262562 0.123047,-0.303432 0,-0.08177 -0.04128,-0.276271 -0.123047,-0.276271 z"/>
</svg>
