<?xml version="1.0" encoding="UTF-8" standalone="no"?>
<svg width="24" height="24" viewBox="0 0 24 24" fill="#44739e" version="1.1" xmlns="http://www.w3.org/2000/svg" xmlns:svg="http://www.w3.org/2000/svg">
<path d="M 12 2 C 6.4643183 2 2 6.4643183 2 12 C 2 17.535681 6.4643183 22 12 22 C 17.535681 22 22 17.535681 22 12 C 22 6.4643183 17.535681 2 12 2 z M 12 3.5 C 16.607115 3.5 20.5 7.3928846 20.5 12 C 20.5 16.607115 16.607115 20.5 12 20.5 C 7.3928846 20.5 3.5 16.607115 3.5 12 C 3.5 7.3928846 7.3928846 3.5 12 3.5 z M 7.1347656 6.3164062 C 6.9303335 6.3164062 6.8066406 6.4401007 6.8066406 6.6445312 L 6.8066406 17.355469 C 6.8066406 17.559901 6.9303335 17.683594 7.1347656 17.683594 L 16.865234 17.683594 C 17.069667 17.683594 17.193359 17.559901 17.193359 17.355469 L 17.193359 7.2988281 L 15.638672 6.3164062 L 14.779297 6.3164062 L 14.779297 9.8808594 L 10.380859 9.8808594 L 10.380859 6.3164062 L 7.1347656 6.3164062 z M 13.226562 6.8886719 C 13.103905 6.8886719 12.980469 6.971087 12.980469 7.09375 L 12.980469 8.7285156 C 12.980469 8.8511758 13.103905 8.9746094 13.226562 8.9746094 L 13.634766 8.9746094 C 13.757424 8.9746094 13.880859 8.8511758 13.880859 8.7285156 L 13.880859 7.09375 C 13.880859 6.9710905 13.757424 6.8886719 13.634766 6.8886719 L 13.226562 6.8886719 z M 8.3613281 7.1289062 C 8.7701888 7.1289062 9.0566406 7.4153584 9.0566406 7.8242188 C 9.0566406 8.1921922 8.7701887 8.4785156 8.3613281 8.4785156 C 7.9933548 8.4785156 7.6679687 8.1921922 7.6679688 7.8242188 C 7.6679688 7.4153584 7.9933549 7.1289063 8.3613281 7.1289062 z M 8.1152344 12.53125 L 15.84375 12.53125 C 15.966409 12.53125 16.046875 12.61353 16.046875 12.695312 L 16.046875 16.716797 L 7.9121094 16.716797 L 7.9121094 12.695312 C 7.9121094 12.613543 7.9925725 12.53125 8.1152344 12.53125 z M 8.59375 13.166016 C 8.5119811 13.166016 8.4707031 13.248186 8.4707031 13.289062 C 8.4707031 13.370832 8.5119802 13.462891 8.59375 13.462891 L 15.339844 13.462891 C 15.421614 13.462891 15.462891 13.37083 15.462891 13.289062 C 15.462891 13.248173 15.421611 13.166016 15.339844 13.166016 L 8.59375 13.166016 z M 8.59375 14.455078 C 8.5119811 14.455078 8.4707031 14.597922 8.4707031 14.679688 C 8.4707031 14.720577 8.5119802 14.761719 8.59375 14.761719 L 15.339844 14.761719 C 15.421614 14.761719 15.462891 14.720557 15.462891 14.679688 C 15.462891 14.597918 15.421611 14.455078 15.339844 14.455078 L 8.59375 14.455078 z M 8.59375 15.589844 C 8.5119811 15.589844 8.4707031 15.681904 8.4707031 15.763672 C 8.4707031 15.804562 8.5119802 15.884766 8.59375 15.884766 L 15.339844 15.884766 C 15.421614 15.884766 15.462891 15.804576 15.462891 15.763672 C 15.462888 15.681902 15.421611 15.589844 15.339844 15.589844 L 8.59375 15.589844 z " />
</svg>
