<?xml version="1.0" encoding="UTF-8" standalone="no"?>
<svg width="24" height="24" viewBox="0 0 24 24" fill="#44739e" version="1.1" xmlns="http://www.w3.org/2000/svg" xmlns:svg="http://www.w3.org/2000/svg">
<path d="m 12.592092,2.000135 c -0.587838,0.091507 -0.423828,0.6074219 -0.423828,0.6074219 0,0 0.06388,0.1982053 0.07227,0.2246093 0.993914,0.3262386 1.319675,0.7335318 1.322265,0.7382813 C 13.964033,3.2381906 14.082362,3.136952 14.492483,2.8477912 13.776573,2.1078041 12.877982,1.9934104 12.592092,2.000135 Z m 3.875,0.4921875 c -0.189943,-0.00757 -1.063837,0.063381 -2.914062,1.6757813 -1.484075,-1.5131932 -3.222285,-1.1887485 -4.2519533,0.060547 -0.3586858,0.554455 0.2265624,0.75 0.2265624,0.75 C 10.289275,5.202822 10.637014,5.5665415 10.637014,5.5665414 9.6957523,6.151701 8.8733234,6.9049923 8.2620141,7.9454477 c 1.7774259,0.041804 3.9489779,0.2807307 4.5781249,1.2285156 1.120668,1.8518267 0.976122,3.1470467 0.982422,3.5839837 0.03461,2.409377 -1.87328,4.968309 -4.4492187,5.732422 0,0 -0.2301068,0.346917 0.2480468,0.642578 0.6181969,0.370188 1.3039229,0.210705 1.7929689,0.806641 0.421931,0.514157 0.34375,1.357422 0.34375,1.357422 8.217372,2.201839 10.398004,-10.050899 8.164063,-13.2597654 0,0 0.696619,-0.121273 1.253906,0.041016 0,0 0.591438,0.1320702 0.574218,-0.5371094 10e-7,0 -0.457426,-2.9693304 -3.652343,-2.1621094 -0.741665,-2.7209517 -1.589844,-2.8828124 -1.589844,-2.8828124 0,0 -0.01388,-0.00283 -0.04102,-0.00391 z m 2.248047,1.1738281 c -0.212712,0.00438 -0.446093,0.031599 -0.697265,0.087891 0.168271,0.4708039 0.226093,0.5996217 0.378906,1.0976563 0.273383,-0.1029187 1.015813,-0.1061847 1.507812,0.021484 0.02151,-0.017457 0.177735,-0.1601563 0.177735,-0.1601563 0,0 0.421444,-0.4366009 -0.101563,-0.7578125 -0.17641,-0.1219823 -0.627488,-0.3022103 -1.265625,-0.2890625 z m -13.7011717,2 -2.4472656,2.8203125 1.875,-0.00391 0.8828124,-0.2128907 0.1816407,0.6757813 C 4.2334591,9.0797243 3.2333864,9.3270311 3.0667017,9.6622444 1.6979816,11.384265 1.5639208,16.60492 6.5432641,17.787244 c 0.9759862,2.248131 -1.8515624,2.56836 -1.8515624,2.56836 -0.3945087,0.0041 -0.4101563,0.822265 -0.4101563,0.822265 -0.039899,0.208856 0.6898969,0.822266 3.2890625,0.822266 2.5991651,0 3.3508861,-0.627139 3.2910161,-0.822266 0,0 0.02312,-0.804325 -0.41211,-0.822265 0,0 -2.945609,-0.394924 -1.7890623,-2.578125 C 13.735977,16.450429 13.3533,11.275706 12.094045,9.7481819 11.76832,9.0850202 9.6370506,8.8128423 7.5237329,8.8321662 7.0735705,8.8362825 6.6283746,8.8573265 6.197561,8.8868538 L 5.9905298,8.1114631 6.8049829,7.9141975 8.4768579,7.0665412 Z m 2.5566406,3.6171875 c 3.6028531,-0.00792 4.3828121,0.6855469 4.3828131,0.6855469 0,0 -0.849401,0.669917 -4.3828131,0.685547 -3.5334128,0.01563 -4.3828125,-0.685547 -4.3828125,-0.685547 0,0 0.4865405,-0.4159679 2.4316406,-0.5996094 l 0.035156,0.1347656 c 0,0 0.083111,0.20369 0.4042968,0.095703 C 6.3800749,9.4917564 6.3167017,9.32826 6.3167017,9.32826 L 6.3127917,9.316541 C 6.6885012,9.296058 7.1050223,9.284361 7.5706042,9.283338 Z"/>
</svg>
