<?xml version="1.0" encoding="UTF-8" standalone="no"?>
<svg width="24" height="24" viewBox="0 0 24 24" fill="#44739e" version="1.1" xmlns="http://www.w3.org/2000/svg" xmlns:svg="http://www.w3.org/2000/svg">
<path d="m 14.237912,20.381392 v -1.156334 l 0.396845,-1.233271 c 2.778097,-2.752808 4.960881,-5.329328 5.346682,-6.122135 l -0.474014,0.165197 c 0,0 0.440835,-0.550533 0.396845,-0.858933 C 19.551601,5.7804176 16.50891,2.9688631 15.671045,2.2788399 16.905708,3.7616705 16.567843,4.2463573 16.567843,4.2463573 16.023852,3.2332251 14.906729,2.2495128 14.686219,2 l -0.264502,1.5709049 c 1.058284,0.6166589 0.779119,0.9690023 0.779119,0.9690023 C 14.950859,4.1875174 14.274757,3.8793503 14.274757,3.8793503 l -0.0736,0.4404177 c 0.323573,0.1468677 1.778515,1.0277958 1.789559,3.2887239 0,2.7528071 -1.56543,3.4795821 -1.841021,3.5896521 -0.914989,-0.55058 -1.907193,-0.539536 -2.149698,-0.561485 -0.242506,0.022 -1.23471,0.01095 -2.1496065,0.561485 -0.275685,-0.110255 -1.841114,-0.83703 -1.841114,-3.5898377 0.01104,-2.2609281 1.466358,-3.1418562 1.789513,-3.2887239 l -0.07336,-0.4402321 c 0,0 -0.676288,0.3083063 -0.925986,0.6606961 0,0 -0.279443,-0.3523434 0.778932,-0.9690023 L 9.3137815,2 c -0.22051,0.2495592 -1.33754,1.2332715 -1.881345,2.2462645 0,0 -0.338191,-0.484594 0.896519,-1.9675174 -0.837772,0.6900232 -3.88051,3.5015777 -4.233225,8.8970769 -0.04408,0.308399 0.396938,0.858932 0.396938,0.858932 l -0.474107,-0.165104 c 0.385893,0.792807 2.568677,3.369466 5.346682,6.122274 l 0.396937,1.233271 v 1.156195 l -0.352668,-1.233271 -0.804872,-1.321346 v 1.343387 C 8.9353595,20.106079 10.225105,22 10.225105,22 V 18.080046 L 5.2863105,12.695499 c 0,0 3.086775,2.510441 3.968724,3.413457 l 0.463017,-0.473318 c -0.573318,-0.407425 -3.064734,-2.907007 -3.285383,-5.109049 1.874153,3.964084 3.6710445,4.459397 4.9939675,6.00116 v 0.377123 h 1.146497 v -0.377308 c 1.322876,-1.541578 3.119861,-2.037123 4.99392,-6.00116 -0.220418,2.202273 -2.711925,4.701856 -3.285383,5.109048 l 0.462923,0.473318 c 0.881949,-0.902923 3.968724,-3.413457 3.968724,-3.413457 l -4.938422,5.384733 V 22 c 0,0 1.290023,-1.893968 1.620557,-2.829884 v -1.343387 l -0.80478,1.321345 z M 12.000001,15.646543 C 11.173179,15.095963 9.0455685,13.80761 8.1637125,11.792575 a 14.576195,14.576195 0 0 0 1.598468,1.618655 c 0,0 -0.05517,-1.420418 0.05503,-1.728771 0.1984235,1.706775 0.6064035,2.433504 2.1827855,3.336427 1.576473,-0.902923 1.984361,-1.629652 2.182784,-3.336427 0.110209,0.308353 0.05513,1.728771 0.05513,1.728771 a 14.576195,14.576195 0 0 0 1.598469,-1.618655 c -0.881949,2.015035 -3.00956,3.303388 -3.83638,3.853968 z"/>
</svg>
