<?xml version="1.0" encoding="UTF-8" standalone="no"?>
<svg width="24" height="24" viewBox="0 0 24 24" fill="#44739e" version="1.1" xmlns="http://www.w3.org/2000/svg" xmlns:svg="http://www.w3.org/2000/svg">
<path d="m 21.910262,5.5579196 a 0.2864018,0.2864018 0 0 0 -0.19366,-0.06819 c -0.19366,0 -0.44324,0.130927 -0.5769,0.204573 l -0.0539,0.02728 a 1.8281982,1.8281982 0 0 1 -0.72078,0.181388 c -0.25639,0.0082 -0.47733,0.02318 -0.7651,0.05251 -1.70477,0.175933 -2.4651,1.48247 -3.19747,2.746048 -0.39823,0.687364 -0.81011,1.3979134 -1.37473,1.9482144 a 3.7989154,3.7989154 0 0 1 -0.37232,0.315724 c -0.5844,0.43574 -1.31813,0.743281 -1.89162,0.962856 -0.5503,0.210028 -1.14969,0.398916 -1.73,0.581668 -0.53052,0.167068 -1.03241,0.324589 -1.4933802,0.49643 -0.20798,0.07706 -0.3846,0.136382 -0.54075,0.188207 -0.41938,0.136382 -0.72283,0.240714 -1.1647,0.545527 -0.17253,0.11797 -0.34573,0.245487 -0.4637,0.340954 a 4.8592839,4.8592839 0 0 0 -0.92331,0.973085 5.7832707,5.7832707 0 0 1 -0.77533,0.933533 c -0.0927,0.09138 -0.25912,0.136382 -0.50666,0.136382 -0.29117,0 -0.64304,-0.06001 -1.01672,-0.123426 -0.37369,-0.06342 -0.78147,-0.136381 -1.12242,-0.136381 -0.27754,0 -0.48893,0.04501 -0.64782,0.136381 0,0 -0.26594,0.155476 -0.37914,0.356639 l 0.11047,0.04978 a 2.2884868,2.2884868 0 0 1 0.47256,0.340955 2.2966697,2.2966697 0 0 0 0.49029,0.349137 0.43437607,0.43437607 0 0 1 0.15275,0.09888 c -0.0471,0.06819 -0.11524,0.156157 -0.18684,0.250261 -0.39346,0.514841 -0.62258,0.840112 -0.49098,1.017408 a 0.40914543,0.40914543 0 0 0 0.20458,0.04637 c 0.85852,0 1.31881,-0.222985 1.90252,-0.505295 0.16844,-0.08183 0.34096,-0.166386 0.54553,-0.252306 0.34096,-0.147974 0.70782,-0.383915 1.09651,-0.633494 0.51484,-0.330726 1.04741,-0.673044 1.56294,-0.838748 a 4.2482934,4.2482934 0 0 1 1.31131,-0.184115 c 0.54552,0 1.1196902,0.07296 1.6734002,0.143883 0.41324,0.05319 0.84011,0.107741 1.25949,0.136381 0.16297,0.0095 0.31368,0.01432 0.46097,0.01432 a 5.3516223,5.3516223 0 0 0 0.58712,-0.03069 l 0.0464,-0.01637 c 0.29459,-0.180706 0.43233,-0.568712 0.56531,-0.943762 0.0859,-0.241396 0.1582,-0.458243 0.27276,-0.595989 a 0.14047327,0.14047327 0 0 1 0.0225,-0.01841 0.02727636,0.02727636 0 0 1 0.0334,0.0055 0.01704773,0.01704773 0 0 1 0,0.01091 c -0.0682,1.466787 -0.65941,2.397593 -1.25608,3.22543 l -0.40506,0.424829 c 0,0 0.55781,0 0.87558,-0.122743 1.15924,-0.34641 2.03481,-1.110148 2.67172,-2.328038 a 9.8460849,9.8460849 0 0 0 0.42005,-0.960809 c 0.0109,-0.02728 0.11183,-0.07774 0.10161,0.06342 0,0.0416 -0.005,0.08797 -0.009,0.136382 v 0 c 0,0.02864 -0.004,0.05796 -0.005,0.08728 -0.017,0.204573 -0.0682,0.636903 -0.0682,0.636903 l 0.358,-0.191616 c 0.86329,-0.545527 1.52884,-1.646129 2.03345,-3.358402 0.21071,-0.713277 0.36414,-1.421781 0.49984,-2.045727 0.16229,-0.7501004 0.30209,-1.3931414 0.46233,-1.6427194 0.25163,-0.391416 0.63554,-0.655997 1.00718,-0.913077 0.0512,-0.03478 0.10161,-0.06819 0.15139,-0.105014 0.46779,-0.327998 0.93217,-0.706457 1.03377,-1.412233 v -0.01568 c 0.0777,-0.526434 0.0143,-0.65736 -0.0539,-0.722142 z"/>
</svg>
