<?xml version="1.0" encoding="UTF-8" standalone="no"?>
<svg
   width="24"
   height="24"
   viewBox="0 0 24 24"
   version="1.1"
   xmlns="http://www.w3.org/2000/svg"
   xmlns:svg="http://www.w3.org/2000/svg">
  <path
     style="fill:#44739e;"
     d="M 2.9492188,2.3984375 C 1.6805471,9.7707346 1.971413,19.514565 2.2050781,21.601562 h 4.890625 c 0,0 -2.3613977,-13.8537308 -0.7460937,-13.8261714 0.6660464,0.011363 4.1445316,9.5976564 4.1445316,9.5976564 0.99001,-0.125857 2.0093,-0.120634 3.007812,0 0,0 3.373389,-9.4331002 4.144531,-9.5976564 1.558842,0.1040677 -0.746093,13.8261714 -0.746093,13.8261714 h 4.892578 c 0,0 0.800588,-9.600128 -0.746094,-19.2031245 l -4.617188,0.015625 C 15.474701,2.7225885 12.51208,7.9464428 11.998047,8.1601563 11.476195,7.9594652 8.3464979,2.4270878 7.4785156,2.3984375 Z M 9.875,19.287109 c -0.6394202,0 -1.15625,0.518784 -1.15625,1.158203 0,0.639423 0.5168298,1.15625 1.15625,1.15625 0.639421,2e-6 1.158203,-0.516827 1.158203,-1.15625 0,-0.639419 -0.518782,-1.158203 -1.158203,-1.158203 z m 4.246094,0 c -0.639423,0 -1.158203,0.518784 -1.158203,1.158203 0,0.639423 0.51878,1.15625 1.158203,1.15625 0.639419,2e-6 1.15625,-0.516827 1.15625,-1.15625 0,-0.639419 -0.516831,-1.158203 -1.15625,-1.158203 z"/>
</svg>
