<?xml version="1.0" encoding="UTF-8" standalone="no"?>
<svg width="24" height="24" viewBox="0 0 24 24" fill="#44739e" version="1.1" xmlns="http://www.w3.org/2000/svg" xmlns:svg="http://www.w3.org/2000/svg">
<path d="m 11.820592,2.0158023 a 1.0175042,1.0175042 0 0 0 -0.335959,0.124841 L 3.7196486,6.6238103 A 1.0181167,1.0181167 0 0 0 3.2032903,7.5173064 v 8.9656806 a 1.0122703,1.0122703 0 0 0 0.1359525,0.517012 h 6.526e-4 a 1.0102757,1.0102757 0 0 0 0.3797522,0.376484 l 7.7643314,4.483167 a 1.0188328,1.0188328 0 0 0 1.032063,0 l 7.764984,-4.483167 a 1.0182271,1.0182271 0 0 0 0.515705,-0.893496 V 7.5173064 A 1.0185484,1.0185484 0 0 0 20.280373,6.6238103 l -7.764985,-4.483167 a 1.0175042,1.0175042 0 0 0 -0.694796,-0.124841 z m 3.664184,5.572095 a 0.99855957,0.99855957 0 0 1 0.998075,0.9987286 l -0.0013,6.8538401 A 1.0411642,1.0411642 0 0 1 15.348177,16.411089 1.7745752,1.7745752 0 0 1 13.98669,15.802571 L 9.5133201,10.448784 v 4.964884 l 6.693e-4,-6.7e-4 a 0.99855957,0.99855957 0 0 1 -1.9968035,6.7e-4 v -6.7e-4 L 7.5178552,8.5585043 A 1.0410169,1.0410169 0 0 1 8.6518828,7.5885351 1.7757498,1.7757498 0 0 1 10.012716,8.1970535 l 0.301971,0.3614508 4.172046,4.9923357 V 8.5866259 h -6.7e-4 a 0.99855957,0.99855957 0 0 1 0.998729,-0.9987286 z"/>
</svg>
