<?xml version="1.0" encoding="UTF-8" standalone="no"?>
<svg
   width="24"
   height="24"
   viewBox="0 0 24 24"
   version="1.1"
   xmlns="http://www.w3.org/2000/svg"
   xmlns:svg="http://www.w3.org/2000/svg">
  <path
     style="fill:#44739e"
     d="m 12.013672,1 c -0.543795,0 -1.091303,0.099082 -1.511719,0.296875 l -9.87109362,4.53125 c -0.84082149,0.359633 -0.84082149,0.9715879 0,1.3671875 L 10.501953,11.726562 c 0.804266,0.359634 2.155262,0.359634 2.996094,0 l 9.871094,-4.5312495 c 0.840799,-0.3596329 0.840799,-0.9715879 0,-1.3671875 L 13.498047,1.296875 C 13.095914,1.099082 12.557467,1 12.013672,1 Z M 3.9941406,9.7128906 0.63085938,11.257812 c -0.84082149,0.359633 -0.84082149,0.971588 0,1.367188 l 9.87109362,4.53125 c 0.804266,0.395567 2.155262,0.395567 2.996094,0 L 23.369141,12.625 c 0.840799,-0.359633 0.840799,-0.971622 0,-1.367188 L 20.005859,9.7128906 13.498047,12.697266 c -0.804265,0.395565 -2.155262,0.395565 -2.996094,0 z M 4.1035156,15.25 0.66796875,16.832031 c -0.84082149,0.3596 -0.84082149,0.971588 0,1.367188 l 9.86914025,4.53125 c 0.804267,0.359599 2.158082,0.359599 2.925782,0 l 9.86914,-4.53125 c 0.840833,-0.359634 0.840833,-0.971621 0,-1.367188 L 19.896484,15.25 13.498047,18.199219 c -0.804266,0.395565 -2.155295,0.395565 -2.996094,0 z" />
</svg>
