<?xml version="1.0" encoding="UTF-8" standalone="no"?>
<svg width="24" height="24" viewBox="0 0 24 24" fill="#44739e" version="1.1" xmlns="http://www.w3.org/2000/svg" xmlns:svg="http://www.w3.org/2000/svg">
<path d="M 12 2 C 6.4643235 2 2 6.4643238 2 12 C 2 17.535675 6.4643235 22 12 22 C 17.535675 22 22 17.535675 22 12 C 22 6.4643238 17.535675 2 12 2 z M 12 3 C 15.687444 3 19.235419 5.8150637 20.505859 9.3007812 L 16.136719 10.414062 L 16.136719 13.400391 L 20.640625 14.300781 C 19.997876 16.376046 18.542543 18.246448 16.705078 19.480469 L 16.199219 16.287109 L 18.486328 15.060547 L 18.488281 14.853516 L 18.160156 14.853516 L 18.160156 13.945312 L 16.136719 13.945312 L 13.21875 13.945312 L 12.958984 10.837891 L 11.228516 10.837891 L 10.966797 13.945312 L 6.0195312 13.945312 L 6.0195312 14.853516 L 5.6757812 14.853516 L 5.6738281 15.072266 L 7.9785156 16.300781 L 7.4570312 19.587891 C 5.553914 18.363373 4.0384709 16.457668 3.3710938 14.335938 L 8.046875 13.402344 L 8.046875 10.408203 L 3.5136719 9.2460938 C 4.8010721 5.7855641 8.3317735 3 12 3 z M 12.09375 6.7207031 L 7.5664062 8.9375 L 7.5664062 9.7792969 L 8.046875 9.7792969 L 8.046875 9.9550781 L 16.136719 9.9550781 L 16.136719 9.7949219 L 16.574219 9.7949219 L 16.574219 8.9375 L 12.09375 6.7207031 z M 12.091797 7.5195312 L 16.125 9.3613281 L 8.0605469 9.3613281 L 12.091797 7.5195312 z M 8.3222656 10.470703 L 8.3222656 13.347656 L 10.544922 12.904297 L 10.546875 11.037109 L 8.3222656 10.470703 z M 15.861328 10.484375 L 13.646484 11.048828 L 13.646484 12.835938 L 15.861328 13.345703 L 15.861328 10.484375 z M 6.7910156 15.052734 L 17.386719 15.052734 L 15.242188 16.195312 L 8.9375 16.195312 L 6.7910156 15.052734 z M 8.4296875 18.044922 L 15.75 18.044922 L 16.035156 19.890625 C 14.788701 20.588971 13.404739 21 12 21 C 10.644309 21 9.3078231 20.617173 8.0957031 19.962891 C 8.1084552 19.963714 8.1132112 19.964086 8.125 19.964844 L 8.4296875 18.044922 z M 8.125 19.964844 L 8.1230469 19.972656 C 8.3864542 19.980598 8.2946923 19.975755 8.125 19.964844 z "/>
</svg>
